{"title":"Sean Kingston Ft. Chris Brown &amp; Wiz Khalifa - Beat It [Music","uid":8695750,"size":127102297,"categoryP":"video","categoryS":"music_videos","magnet":"?xt=urn:btih:204b8d9d0d2258ab045ef7a19b837dc37bf08101&amp;dn=Sean+Kingston+Ft.+Chris+Brown+%26amp%3B+Wiz+Khalifa+-+Beat+It+%5BMusic&amp;tr=udp%3A%2F%2Ftracker.openbittorrent.com%3A80&amp;tr=udp%3A%2F%2Fopen.demonii.com%3A1337&amp;tr=udp%3A%2F%2Ftracker.coppersurfer.tk%3A6969&amp;tr=udp%3A%2F%2Fexodus.desync.com%3A6969","seeders":1,"leechers":0,"uploader":"Sbyky","files":-1,"time":1373974061,"description":"[IMG]http://yuq.me/users/18/139/UhKmPdgCzj.png[/IMG]\n\nGeneral\nComplete name                            : Sean Kingston Ft. Chris Brown &amp; Wiz Khalifa - Beat It [Music Video] 1080p [Sbyky].mp4\nFormat                                   : MPEG-4\nFormat profile                           : Base Media / Version 2\nCodec ID                                 : mp42\nFile size                                : 121 MiB\nDuration                                 : 4mn 15s\nOverall bit rate mode                    : Variable\nOverall bit rate                         : 3 976 Kbps\nEncoded date                             : UTC 2013-05-01 03:48:24\nTagged date                              : UTC 2013-05-01 03:48:24\n\nVideo\nID                                       : 1\nFormat                                   : AVC\nFormat/Info                              : Advanced Video Codec\nFormat profile                           : &lt;a class=&quot;__cf_email__&quot; href=&quot;/cdn-cgi/l/email-protection&quot; data-cfemail=&quot;f9b1909e91b9b5cdd7c9&quot;&gt;[email&amp;#160;protected]&lt;/a&gt;&lt;script cf-hash='f9e31' type=&quot;text/javascript&quot;&gt;\n/* &lt;![CDATA[ */!function(){try{var t=&quot;currentScript&quot;in document?document.currentScript:function(){for(var t=document.getElementsByTagName(&quot;script&quot;),e=t.length;e--;)if(t[e].getAttribute(&quot;cf-hash&quot;))return t[e]}();if(t&amp;&amp;t.previousSibling){var e,r,n,i,c=t.previousSibling,a=c.getAttribute(&quot;data-cfemail&quot;);if(a){for(e=&quot;&quot;,r=parseInt(a.substr(0,2),16),n=2;a.length-n;n+=2)i=parseInt(a.substr(n,2),16)^r,e+=String.fromCharCode(i);e=document.createTextNode(e),c.parentNode.replaceChild(e,c)}}}catch(u){}}();/* ]]&gt; */&lt;/script&gt;\nFormat settings, CABAC                   : Yes\nFormat settings, ReFrames                : 1 frame\nCodec ID                                 : avc1\nCodec ID/Info                            : Advanced Video Coding\nDuration                                 : 4mn 15s\nBit rate                                 : 3 782 Kbps\nMaximum bit rate                         : 6 066 Kbps\nWidth                                    : 1 920 pixels\nHeight                                   : 1 080 pixels\nDisplay aspect ratio                     : 16:9\nFrame rate mode                          : Constant\nFrame rate                               : 23.976 fps\nColor space                              : YUV\nChroma subsampling                       : 4:2:0\nBit depth                                : 8 bits\nScan type                                : Progressive\nBits/(Pixel*Frame)                       : 0.076\nStream size                              : 115 MiB (95%)\nTagged date                              : UTC 2013-05-01 03:48:45\n\nAudio\nID                                       : 2\nFormat                                   : AAC\nFormat/Info                              : Advanced Audio Codec\nFormat profile                           : LC\nCodec ID                                 : 40\nDuration                                 : 4mn 15s\nBit rate mode                            : Variable\nBit rate                                 : 192 Kbps\nMaximum bit rate                         : 203 Kbps\nChannel(s)                               : 2 channels\nChannel positions                        : Front: L R\nSampling rate                            : 44.1 KHz\nCompression mode                         : Lossy\nStream size                              : 5.85 MiB (5%)\nTitle                                    : IsoMedia File Produced by Google, 5-11-2011\nEncoded date                             : UTC 2013-05-01 03:48:39\nTagged date                              : UTC 2013-05-01 03:48:45\n\nShared By Sbyky\n[IMG]http://yuq.me/users/18/139/0aq32UMZvX.gif[/IMG]\n[IMG]http://yuq.me/users/18/139/bQg62viaEG.gif[/IMG]","torrent":{"xt":"urn:btih:204b8d9d0d2258ab045ef7a19b837dc37bf08101","amp;dn":"Sean+Kingston+Ft.+Chris+Brown+%26amp%3B+Wiz+Khalifa+-+Beat+It+%5BMusic","amp;tr":["udp%3A%2F%2Ftracker.openbittorrent.com%3A80","udp%3A%2F%2Fopen.demonii.com%3A1337","udp%3A%2F%2Ftracker.coppersurfer.tk%3A6969","udp%3A%2F%2Fexodus.desync.com%3A6969"],"infoHash":"204b8d9d0d2258ab045ef7a19b837dc37bf08101","infoHashBuffer":{"type":"Buffer","data":[32,75,141,157,13,34,88,171,4,94,247,161,155,131,125,195,123,240,129,1]},"announce":[],"urlList":[]}}